<?xml version="1.0" encoding="UTF-8" standalone="no"?>
<!-- Created with Inkscape (http://www.inkscape.org/) -->

<svg
   width="200mm"
   height="48mm"
   viewBox="0 0 200 48"
   version="1.1"
   id="svg12"
   inkscape:version="1.2.1 (9c6d41e410, 2022-07-14)"
   sodipodi:docname="sectordev-white2.svg"
   xmlns:inkscape="http://www.inkscape.org/namespaces/inkscape"
   xmlns:sodipodi="http://sodipodi.sourceforge.net/DTD/sodipodi-0.dtd"
   xmlns="http://www.w3.org/2000/svg"
   xmlns:svg="http://www.w3.org/2000/svg">
  <sodipodi:namedview
     id="namedview14"
     pagecolor="#ffffff"
     bordercolor="#eeeeee"
     borderopacity="1"
     inkscape:showpageshadow="0"
     inkscape:pageopacity="0"
     inkscape:pagecheckerboard="0"
     inkscape:deskcolor="#666666"
     inkscape:document-units="mm"
     showgrid="false"
     showguides="true"
     inkscape:zoom="3.0056696"
     inkscape:cx="377.45333"
     inkscape:cy="155.37303"
     inkscape:window-width="3840"
     inkscape:window-height="2050"
     inkscape:window-x="-12"
     inkscape:window-y="-12"
     inkscape:window-maximized="1"
     inkscape:current-layer="layer1">
    <sodipodi:guide
       position="269.05131,-14.69779"
       orientation="1,0"
       id="guide2508"
       inkscape:locked="false" />
  </sodipodi:namedview>
  <defs
     id="defs9" />
  <g
     inkscape:label="Ebene 1"
     inkscape:groupmode="layer"
     id="layer1">
    <g
       id="g779">
      <g
         aria-label="SectorDev"
         id="text120"
         style="font-size:45.303px;line-height:1.25;fill:#ffffff;stroke-width:0.530894">
        <path
           d="m 4.209302,35.264206 v -4.202915 h 10.816976 q 2.588111,0 3.915348,-1.017548 1.349357,-1.017548 1.349357,-2.986282 0,-1.526322 -1.039669,-2.654473 -1.017548,-1.150271 -3.848985,-2.588111 L 10.093383,19.094043 Q 7.1734633,17.611962 5.7577445,15.687469 4.3420257,13.740856 4.3420257,11.263348 q 0,-3.5614173 2.5881109,-5.6186337 2.5881109,-2.0572164 7.1007144,-2.0572164 h 9.157931 V 7.7682925 H 12.637253 q -1.81389,0 -2.8977994,0.9290654 -1.0617891,0.9069449 -1.0617891,2.4111461 0,1.371478 0.9290654,2.389025 0.9511861,0.995428 4.5126041,2.831438 l 4.623206,2.344784 q 3.030523,1.548443 4.468363,3.539297 1.45996,1.990855 1.45996,4.623207 0,4.00383 -2.742955,6.21589 -2.720835,2.212061 -7.720092,2.212061 z"
           style="font-family:'Bauhaus Md BT';-inkscape-font-specification:'Bauhaus Md BT'"
           id="path749" />
        <path
           d="m 49.645027,25.663863 q -0.818462,4.645327 -3.760503,7.344041 -2.942041,2.698714 -7.167076,2.698714 -1.43784,0 -2.853559,-0.398171 -1.393598,-0.37605 -2.632352,-1.128151 -2.610231,-1.592683 -4.048071,-4.158674 -1.437839,-2.56599 -1.437839,-5.640754 0,-2.256302 0.818462,-4.291398 0.840583,-2.035096 2.411147,-3.672021 1.570563,-1.614804 3.561417,-2.455387 2.012975,-0.840583 4.225036,-0.840583 3.29597,0 5.884081,1.747528 2.610232,1.725407 4.225036,5.043498 L 34.647256,27.787441 33.010331,24.8454 43.56186,18.961319 q -0.973306,-1.08391 -2.18994,-1.636925 -1.216633,-0.553015 -2.654472,-0.553015 -2.91992,0 -4.932896,2.18994 -1.990854,2.16782 -1.990854,5.375307 0,3.185368 2.012975,5.375308 2.012975,2.18994 4.910775,2.18994 2.765075,0 4.623206,-1.81389 1.880252,-1.83601 2.344785,-5.021378 z"
           style="font-family:'Bauhaus Md BT';-inkscape-font-specification:'Bauhaus Md BT'"
           id="path751" />
        <path
           d="m 66.987584,17.280153 h -1.681166 q -4.092312,0 -6.525578,1.968734 -2.433267,1.946613 -2.433267,5.198343 0,3.229608 2.433267,5.198342 2.455387,1.946613 6.525578,1.946613 h 1.681166 v 3.672021 h -1.946613 q -5.817719,0 -9.290654,-2.964161 -3.450815,-2.986282 -3.450815,-7.919177 0,-2.654473 1.238754,-4.955016 1.238754,-2.300543 3.517176,-3.871106 1.592684,-1.061789 3.384453,-1.526322 1.791769,-0.464533 4.601086,-0.464533 h 1.946613 z"
           style="font-family:'Bauhaus Md BT';-inkscape-font-specification:'Bauhaus Md BT'"
           id="path753" />
        <path
           d="m 70.748086,7.8125337 h 3.893227 v 5.7513573 h 6.56982 v 3.672021 h -6.56982 v 9.290655 q 0,2.610231 1.260874,3.826864 1.282996,1.194513 4.070192,1.194513 h 1.238754 v 3.716262 h -1.282995 q -4.601086,0 -6.901629,-2.012975 -2.278423,-2.012975 -2.278423,-6.061046 z"
           style="font-family:'Bauhaus Md BT';-inkscape-font-specification:'Bauhaus Md BT'"
           id="path755" />
        <path
           d="m 88.00216,24.336626 q 0,3.163247 2.012975,5.375308 2.035096,2.18994 4.910774,2.18994 2.875679,0 4.888654,-2.18994 2.035097,-2.212061 2.035097,-5.375308 0,-3.141126 -2.012976,-5.331066 -2.012975,-2.18994 -4.910775,-2.18994 -2.875678,0 -4.910774,2.18994 -2.012975,2.18994 -2.012975,5.331066 z m -4.048071,0.04424 q 0,-2.256302 0.840583,-4.291398 0.840583,-2.035096 2.433266,-3.672021 1.570564,-1.592683 3.517177,-2.411146 1.968734,-0.840583 4.180794,-0.840583 2.212061,0 4.202916,0.840583 1.990855,0.818463 3.539295,2.411146 1.57056,1.592684 2.38903,3.649901 0.84058,2.057216 0.84058,4.313518 0,2.300543 -0.84058,4.37988 -0.81847,2.057216 -2.38903,3.6499 -1.54844,1.592683 -3.539295,2.433266 -1.990855,0.818463 -4.202916,0.818463 -2.21206,0 -4.180794,-0.818463 -1.946613,-0.840583 -3.517177,-2.433266 -1.592683,-1.614805 -2.433266,-3.672021 -0.840583,-2.057216 -0.840583,-4.357759 z"
           style="font-family:'Bauhaus Md BT';-inkscape-font-specification:'Bauhaus Md BT'"
           id="path757" />
        <path
           d="M 109.87944,35.264206 V 13.563891 h 3.58354 v 3.207488 q 0.99543,-1.902372 2.74295,-2.742955 1.74753,-0.862704 4.71169,-0.862704 h 1.01755 v 3.760503 h -0.59726 q -4.00382,0 -5.79559,1.902373 -1.76965,1.902372 -1.76965,6.193769 v 10.241841 z"
           style="font-family:'Bauhaus Md BT';-inkscape-font-specification:'Bauhaus Md BT'"
           id="path759" />
        <path
           d="m 130.4516,31.41522 q 0.17697,0 0.5309,0.02212 0.35393,0.02212 0.50877,0.02212 5.9062,0 9.46762,-3.318091 3.58354,-3.340212 3.58354,-8.781881 0,-5.552272 -3.6499,-8.826122 -3.6499,-3.2738495 -9.88791,-3.2738495 -0.33181,0 -0.7521,0.022121 -0.4203,0.022121 -1.23876,0.066362 l -0.0221,27.916205 h -4.15867 V 3.5874979 h 5.44167 q 3.6499,0 6.26013,0.5530152 2.63235,0.5530151 4.5126,1.681166 3.82687,2.3005431 5.81772,5.7734779 1.99086,3.472936 1.99086,7.808574 0,4.335639 -2.10146,7.897057 -2.07934,3.561417 -5.92832,5.83984 -1.76965,1.039668 -4.31352,1.592683 -2.54387,0.530895 -5.70712,0.530895 h -0.35393 z"
           style="font-family:'Bauhaus Md BT';-inkscape-font-specification:'Bauhaus Md BT'"
           id="path761" />
        <path
           d="m 173.54255,25.663863 q -0.81847,4.645327 -3.76051,7.344041 -2.94204,2.698714 -7.16707,2.698714 -1.43784,0 -2.85356,-0.398171 -1.3936,-0.37605 -2.63235,-1.128151 -2.61024,-1.592683 -4.04808,-4.158674 -1.43783,-2.56599 -1.43783,-5.640754 0,-2.256302 0.81846,-4.291398 0.84058,-2.035096 2.41114,-3.672021 1.57057,-1.614804 3.56142,-2.455387 2.01298,-0.840583 4.22504,-0.840583 3.29597,0 5.88408,1.747528 2.61023,1.725407 4.22503,5.043498 l -14.22355,7.874936 -1.63692,-2.942041 10.55153,-5.884081 q -0.97331,-1.08391 -2.18994,-1.636925 -1.21663,-0.553015 -2.65447,-0.553015 -2.91992,0 -4.9329,2.18994 -1.99085,2.16782 -1.99085,5.375307 0,3.185368 2.01297,5.375308 2.01298,2.18994 4.91078,2.18994 2.76507,0 4.6232,-1.81389 1.88025,-1.83601 2.34479,-5.021378 z"
           style="font-family:'Bauhaus Md BT';-inkscape-font-specification:'Bauhaus Md BT'"
           id="path763" />
        <path
           d="m 178.82938,13.563891 6.21589,17.077108 6.19377,-17.077108 h 4.00383 l -7.25556,19.532496 q -0.50878,1.371477 -1.23876,1.990854 -0.70786,0.619377 -1.74752,0.619377 -1.03967,0 -1.74753,-0.619377 -0.68574,-0.619377 -1.19452,-1.990854 l -7.21131,-19.532496 z"
           style="font-family:'Bauhaus Md BT';-inkscape-font-specification:'Bauhaus Md BT'"
           id="path765" />
      </g>
      <rect
         style="fill:#00bc09;fill-opacity:1;stroke-width:162.188;stroke-linecap:square;paint-order:stroke markers fill"
         id="rect207-9"
         width="191.03069"
         height="3.8746107"
         x="4.208499"
         y="39.120461" />
    </g>
  </g>
</svg>
