<?xml version="1.0" encoding="UTF-8" standalone="no"?>
<!-- Created with Inkscape (http://www.inkscape.org/) -->

<svg
   width="180mm"
   height="14mm"
   viewBox="0 0 180 14"
   version="1.1"
   id="svg12"
   inkscape:version="1.2.1 (9c6d41e410, 2022-07-14)"
   sodipodi:docname="sectorcon-group.svg"
   xmlns:inkscape="http://www.inkscape.org/namespaces/inkscape"
   xmlns:sodipodi="http://sodipodi.sourceforge.net/DTD/sodipodi-0.dtd"
   xmlns="http://www.w3.org/2000/svg"
   xmlns:svg="http://www.w3.org/2000/svg">
  <sodipodi:namedview
     id="namedview14"
     pagecolor="#ffffff"
     bordercolor="#eeeeee"
     borderopacity="1"
     inkscape:showpageshadow="0"
     inkscape:pageopacity="0"
     inkscape:pagecheckerboard="0"
     inkscape:deskcolor="#666666"
     inkscape:document-units="mm"
     showgrid="false"
     showguides="true"
     inkscape:zoom="4.0000898"
     inkscape:cx="371.61666"
     inkscape:cy="101.74772"
     inkscape:window-width="3840"
     inkscape:window-height="2050"
     inkscape:window-x="-12"
     inkscape:window-y="-12"
     inkscape:window-maximized="1"
     inkscape:current-layer="layer1">
    <sodipodi:guide
       position="268.9633,-100.65133"
       orientation="1,0"
       id="guide2508"
       inkscape:locked="false" />
  </sodipodi:namedview>
  <defs
     id="defs9">
    <linearGradient
       gradientTransform="matrix(2.4786246,0,0,2.4786246,72.216757,-44.112957)"
       gradientUnits="userSpaceOnUse"
       y2="9.0250902"
       x2="145"
       y1="9.0250902"
       id="linear-gradient">
      <stop
         id="stop4"
         stop-color="#01c3c6"
         offset="0.126" />
      <stop
         id="stop6"
         stop-color="#1493d3"
         offset="0.60576" />
      <stop
         id="stop8"
         stop-color="#2270dd"
         offset="1" />
    </linearGradient>
  </defs>
  <g
     inkscape:label="Ebene 1"
     inkscape:groupmode="layer"
     id="layer1"
     transform="translate(-0.08802781,51.953541)">
    <g
       id="g496">
      <g
         aria-label="SectorCon"
         id="text4654"
         style="font-size:69.7337px;line-height:1.25;fill:#000000;stroke-width:0.351311"
         transform="matrix(0.19808437,0,0,0.19808437,-1.0375683,-65.618508)">
        <path
           d="m 9.3498538,123.08755 v -6.46944 H 26.000137 q 3.983811,0 6.02679,-1.56628 2.07703,-1.56629 2.07703,-4.59671 0,-2.34942 -1.600334,-4.08596 -1.566285,-1.77058 -5.924641,-3.98381 l -8.171919,-4.188104 q -4.494555,-2.281327 -6.673733,-5.243648 -2.1791783,-2.99637 -2.1791783,-6.809932 0,-5.481995 3.9838103,-8.648613 3.98381,-3.166619 10.929941,-3.166619 H 38.564462 V 80.76382 H 22.322774 q -2.792072,0 -4.460505,1.430086 -1.634384,1.396036 -1.634384,3.711413 0,2.111079 1.430086,3.677363 1.464135,1.532235 6.94613,4.358356 l 7.116379,3.609264 q 4.664804,2.383477 6.878032,5.447948 2.247277,3.06447 2.247277,7.11638 0,6.16299 -4.222158,9.56795 -4.188108,3.40497 -11.883331,3.40497 z"
           style="font-family:'Bauhaus Md BT';-inkscape-font-specification:'Bauhaus Md BT';fill:#000000"
           id="path26878" />
        <path
           d="m 79.287857,108.30999 q -1.259838,7.15043 -5.788442,11.30449 -4.528605,4.15406 -11.03209,4.15406 -2.213228,0 -4.392406,-0.61289 -2.145129,-0.57885 -4.05191,-1.73654 -4.01786,-2.45157 -6.231088,-6.40133 -2.213228,-3.94976 -2.213228,-8.68267 0,-3.47306 1.259838,-6.605629 1.293887,-3.132569 3.711413,-5.652244 2.417526,-2.485625 5.481995,-3.779512 3.098519,-1.293887 6.503485,-1.293887 5.073399,0 9.05721,2.689923 4.01786,2.655873 6.503485,7.763322 L 56.202187,111.57876 53.682512,107.05016 69.9242,97.992948 q -1.498185,-1.668433 -3.370916,-2.519675 -1.872731,-0.851241 -4.085959,-0.851241 -4.494555,0 -7.593074,3.370916 -3.06447,3.336862 -3.06447,8.274072 0,4.90315 3.098519,8.27406 3.098519,3.37092 7.559025,3.37092 4.256207,0 7.116379,-2.79207 2.894221,-2.82612 3.609264,-7.72928 z"
           style="font-family:'Bauhaus Md BT';-inkscape-font-specification:'Bauhaus Md BT';fill:#000000"
           id="path26880" />
        <path
           d="m 105.9828,95.405174 h -2.58778 q -6.299186,0 -10.044648,3.030419 -3.745463,2.996367 -3.745463,8.001667 0,4.97125 3.745463,8.00167 3.779512,2.99637 10.044648,2.99637 h 2.58778 v 5.65225 h -2.99637 q -8.955065,0 -14.300862,-4.56266 -5.311747,-4.5967 -5.311747,-12.18978 0,-4.08595 1.906781,-7.627119 1.906781,-3.541165 5.413896,-5.958691 2.451576,-1.634383 5.209598,-2.349426 2.758023,-0.715043 7.082334,-0.715043 h 2.99637 z"
           style="font-family:'Bauhaus Md BT';-inkscape-font-specification:'Bauhaus Md BT';fill:#000000"
           id="path26882" />
        <path
           d="m 111.77124,80.831919 h 5.99274 v 8.852912 h 10.11275 v 5.652243 h -10.11275 v 14.300856 q 0,4.01786 1.94083,5.89059 1.97488,1.83868 6.26513,1.83868 h 1.90679 v 5.72035 h -1.97489 q -7.08232,0 -10.62349,-3.09852 -3.50711,-3.09852 -3.50711,-9.32961 z"
           style="font-family:'Bauhaus Md BT';-inkscape-font-specification:'Bauhaus Md BT';fill:#000000"
           id="path26884" />
        <path
           d="m 138.32997,106.26702 q 0,4.8691 3.09852,8.27406 3.13257,3.37092 7.55902,3.37092 4.42646,0 7.52498,-3.37092 3.13257,-3.40496 3.13257,-8.27406 0,-4.83506 -3.09852,-8.205973 -3.09852,-3.370916 -7.55903,-3.370916 -4.42645,0 -7.55902,3.370916 -3.09852,3.370913 -3.09852,8.205973 z m -6.23109,0.0681 q 0,-3.47306 1.29389,-6.605629 1.29388,-3.132569 3.74546,-5.652244 2.41753,-2.451576 5.4139,-3.711413 3.03042,-1.293887 6.43538,-1.293887 3.40497,0 6.46944,1.293887 3.06447,1.259837 5.44794,3.711413 2.41753,2.451576 3.67737,5.618194 1.29388,3.166619 1.29388,6.639679 0,3.54117 -1.29388,6.74184 -1.25984,3.16662 -3.67737,5.61819 -2.38347,2.45158 -5.44794,3.74546 -3.06447,1.25984 -6.46944,1.25984 -3.40496,0 -6.43538,-1.25984 -2.99637,-1.29388 -5.4139,-3.74546 -2.45158,-2.48562 -3.74546,-5.65224 -1.29389,-3.16662 -1.29389,-6.70779 z"
           style="font-family:'Bauhaus Md BT';-inkscape-font-specification:'Bauhaus Md BT';fill:#000000"
           id="path26886" />
        <path
           d="M 172.00509,123.08755 V 89.684831 h 5.51604 v 4.937201 q 1.53224,-2.928271 4.22216,-4.222158 2.68992,-1.327937 7.25258,-1.327937 h 1.56628 v 5.788442 h -0.91934 q -6.16299,0 -8.92101,2.928271 -2.72397,2.92827 -2.72397,9.5339 v 15.765 z"
           style="font-family:'Bauhaus Md BT';-inkscape-font-specification:'Bauhaus Md BT';fill:#000000"
           id="path26888" />
        <path
           d="m 223.18172,80.116876 q -0.44265,-0.03405 -0.91934,-0.03405 -0.4767,-0.03405 -1.43009,-0.03405 -9.90845,0 -15.62879,5.03935 -5.72035,5.0053 -5.72035,13.585814 0,8.58052 5.72035,13.61987 5.72034,5.0053 15.62879,5.0053 0.95339,0 1.43009,0 0.51074,-0.034 0.91934,-0.0681 v 5.85654 h -1.87273 q -5.4139,0 -9.53391,-0.85124 -4.12001,-0.85125 -6.91208,-2.55373 -5.85654,-3.57521 -8.92101,-8.92101 -3.06447,-5.37985 -3.06447,-12.08763 0,-6.673733 3.06447,-12.01953 3.06447,-5.345796 8.92101,-8.886961 2.79207,-1.702483 6.91208,-2.553725 4.12001,-0.885291 9.53391,-0.885291 h 1.87273 z"
           style="font-family:'Bauhaus Md BT';-inkscape-font-specification:'Bauhaus Md BT';fill:#000000"
           id="path26890" />
        <path
           d="m 233.60091,106.26702 q 0,4.8691 3.09852,8.27406 3.13257,3.37092 7.55902,3.37092 4.42646,0 7.52498,-3.37092 3.13257,-3.40496 3.13257,-8.27406 0,-4.83506 -3.09852,-8.205973 -3.09852,-3.370916 -7.55903,-3.370916 -4.42645,0 -7.55902,3.370916 -3.09852,3.370913 -3.09852,8.205973 z m -6.23109,0.0681 q 0,-3.47306 1.29389,-6.605629 1.29389,-3.132569 3.74546,-5.652244 2.41753,-2.451576 5.4139,-3.711413 3.03042,-1.293887 6.43538,-1.293887 3.40497,0 6.46944,1.293887 3.06447,1.259837 5.44795,3.711413 2.41752,2.451576 3.67736,5.618194 1.29389,3.166619 1.29389,6.639679 0,3.54117 -1.29389,6.74184 -1.25984,3.16662 -3.67736,5.61819 -2.38348,2.45158 -5.44795,3.74546 -3.06447,1.25984 -6.46944,1.25984 -3.40496,0 -6.43538,-1.25984 -2.99637,-1.29388 -5.4139,-3.74546 -2.45157,-2.48562 -3.74546,-5.65224 -1.29389,-3.16662 -1.29389,-6.70779 z"
           style="font-family:'Bauhaus Md BT';-inkscape-font-specification:'Bauhaus Md BT';fill:#000000"
           id="path26892" />
        <path
           d="m 266.83338,123.08755 v -18.21657 q 0,-7.286628 3.88166,-11.542836 3.88166,-4.256207 10.3511,-4.256207 6.46943,0 10.31704,4.256207 3.84761,4.256208 3.84761,11.542836 v 18.21657 h -5.92464 v -19.30616 q 0,-3.94976 -2.31537,-6.435386 -2.28133,-2.485625 -5.92464,-2.485625 -3.60927,0 -5.95869,2.485625 -2.31538,2.485626 -2.31538,6.435386 v 19.30616 z"
           style="font-family:'Bauhaus Md BT';-inkscape-font-specification:'Bauhaus Md BT';fill:#000000"
           id="path26894" />
      </g>
      <rect
         style="fill:#d43127;fill-opacity:1;stroke-width:1.81931;stroke-linecap:square;paint-order:stroke markers fill"
         id="rect20389"
         width="56.638874"
         height="1.1603467"
         x="0.80968869"
         y="-40.055553"
         ry="0" />
    </g>
    <g
       id="g483">
      <g
         aria-label="mirow"
         id="text120"
         style="font-size:14.326px;line-height:1.25;stroke-width:0.167882">
        <path
           d="m 71.18781,-41.339901 v -3.966231 q 0,-1.399024 0.734487,-2.210458 0.734487,-0.811433 1.979618,-0.811433 0.636556,0 1.17518,0.272809 0.538624,0.265815 0.93035,0.783454 0.405717,-0.524634 0.937346,-0.790449 0.531629,-0.265814 1.168185,-0.265814 1.23114,0 1.965628,0.818429 0.741482,0.811433 0.741482,2.203462 v 3.966231 h -1.21715 v -4.19707 q 0,-0.720497 -0.412712,-1.16119 -0.412712,-0.440692 -1.077248,-0.440692 -0.664536,0 -1.077248,0.440692 -0.412712,0.440693 -0.412712,1.16119 v 4.19707 h -1.217151 v -4.19707 q 0,-0.720497 -0.419707,-1.16119 -0.419707,-0.440692 -1.084243,-0.440692 -0.671531,0 -1.084243,0.440692 -0.405717,0.440693 -0.405717,1.16119 v 4.19707 z"
           style="font-family:'Bauhaus Md BT';-inkscape-font-specification:'Bauhaus Md BT'"
           id="path329" />
        <path
           d="m 82.421968,-41.339901 v -6.86221 h 1.23114 v 6.86221 z m -0.132907,-8.813848 q 0,-0.307785 0.216848,-0.524634 0.216849,-0.216848 0.531629,-0.216848 0.31478,0 0.524634,0.216848 0.216849,0.209854 0.216849,0.524634 0,0.321776 -0.216849,0.545619 -0.209854,0.216849 -0.524634,0.216849 -0.307785,0 -0.531629,-0.223844 -0.216848,-0.223843 -0.216848,-0.538624 z"
           style="font-family:'Bauhaus Md BT';-inkscape-font-specification:'Bauhaus Md BT'"
           id="path331" />
        <path
           d="m 85.331936,-41.339901 v -6.86221 h 1.133209 v 1.014292 q 0.314781,-0.60158 0.867395,-0.867395 0.552614,-0.272809 1.48996,-0.272809 h 0.321775 v 1.18917 h -0.188868 q -1.266116,0 -1.832721,0.60158 -0.559609,0.60158 -0.559609,1.958633 v 3.238739 z"
           style="font-family:'Bauhaus Md BT';-inkscape-font-specification:'Bauhaus Md BT'"
           id="path333" />
        <path
           d="m 90.851084,-44.795489 q 0,1.000302 0.636556,1.699814 0.643551,0.692516 1.552916,0.692516 0.909365,0 1.545921,-0.692516 0.643551,-0.699512 0.643551,-1.699814 0,-0.993307 -0.636556,-1.685823 -0.636556,-0.692517 -1.552916,-0.692517 -0.909365,0 -1.552916,0.692517 -0.636556,0.692516 -0.636556,1.685823 z m -1.280106,0.01399 q 0,-0.713502 0.265814,-1.357052 0.265815,-0.643551 0.769463,-1.16119 0.496654,-0.503648 1.112224,-0.762468 0.622565,-0.265814 1.322077,-0.265814 0.699512,0 1.329072,0.265814 0.629561,0.25882 1.119219,0.762468 0.496653,0.503649 0.755473,1.154194 0.265814,0.650546 0.265814,1.364048 0,0.727493 -0.265814,1.385034 -0.25882,0.650545 -0.755473,1.154194 -0.489658,0.503648 -1.119219,0.769463 -0.62956,0.258819 -1.329072,0.258819 -0.699512,0 -1.322077,-0.258819 -0.61557,-0.265815 -1.112224,-0.769463 -0.503648,-0.510644 -0.769463,-1.16119 -0.265814,-0.650545 -0.265814,-1.378038 z"
           style="font-family:'Bauhaus Md BT';-inkscape-font-specification:'Bauhaus Md BT'"
           id="path335" />
        <path
           d="m 107.3106,-48.202111 v 3.966231 q 0,1.399024 -0.73449,2.210458 -0.73449,0.811433 -1.97263,0.811433 -0.64355,0 -1.18217,-0.265814 -0.53862,-0.27281 -0.92336,-0.790449 -0.41271,0.524634 -0.94434,0.790449 -0.53163,0.265814 -1.16119,0.265814 -1.238132,0 -1.979614,-0.811433 -0.734487,-0.818429 -0.734487,-2.210458 v -3.966231 h 1.224145 v 4.18308 q 0,0.727492 0.405717,1.17518 0.412712,0.440692 1.084239,0.440692 0.66454,0 1.08425,-0.447687 0.4197,-0.447688 0.4197,-1.168185 v -4.18308 h 1.21715 v 4.18308 q 0,0.727492 0.40572,1.17518 0.41271,0.440692 1.08424,0.440692 0.65755,0 1.07026,-0.447687 0.4197,-0.447688 0.4197,-1.168185 v -4.18308 z"
           style="font-family:'Bauhaus Md BT';-inkscape-font-specification:'Bauhaus Md BT'"
           id="path337" />
      </g>
      <rect
         style="fill:#00b1f0;fill-opacity:1;stroke-width:39.6577;stroke-linecap:square;paint-order:stroke markers fill"
         id="rect207-9"
         width="36.118622"
         height="1.2252496"
         x="71.191132"
         y="-40.120457" />
    </g>
    <g
       id="g474">
      <g
         id="g623"
         transform="matrix(0.30451,0,0,0.30451,119.00171,-51.987636)">
        <g
           aria-label="SectorDev"
           id="text120-8"
           style="font-size:45.303px;line-height:1.25;stroke-width:0.530894">
          <path
             d="m 4.209302,35.264206 v -4.202915 h 10.816976 q 2.588111,0 3.915348,-1.017548 1.349357,-1.017548 1.349357,-2.986282 0,-1.526322 -1.039669,-2.654473 -1.017548,-1.150271 -3.848985,-2.588111 L 10.093383,19.094043 Q 7.1734633,17.611962 5.7577445,15.687469 4.3420257,13.740856 4.3420257,11.263348 q 0,-3.5614173 2.5881109,-5.6186337 2.5881109,-2.0572164 7.1007144,-2.0572164 h 9.157931 V 7.7682925 H 12.637253 q -1.81389,0 -2.8977994,0.9290654 -1.0617891,0.9069449 -1.0617891,2.4111461 0,1.371478 0.9290654,2.389025 0.9511861,0.995428 4.5126041,2.831438 l 4.623206,2.344784 q 3.030523,1.548443 4.468363,3.539297 1.45996,1.990855 1.45996,4.623207 0,4.00383 -2.742955,6.21589 -2.720835,2.212061 -7.720092,2.212061 z"
             style="font-family:'Bauhaus Md BT';-inkscape-font-specification:'Bauhaus Md BT'"
             id="path442" />
          <path
             d="m 49.645027,25.663863 q -0.818462,4.645327 -3.760503,7.344041 -2.942041,2.698714 -7.167076,2.698714 -1.43784,0 -2.853559,-0.398171 -1.393598,-0.37605 -2.632352,-1.128151 -2.610231,-1.592683 -4.048071,-4.158674 -1.437839,-2.56599 -1.437839,-5.640754 0,-2.256302 0.818462,-4.291398 0.840583,-2.035096 2.411147,-3.672021 1.570563,-1.614804 3.561417,-2.455387 2.012975,-0.840583 4.225036,-0.840583 3.29597,0 5.884081,1.747528 2.610232,1.725407 4.225036,5.043498 L 34.647256,27.787441 33.010331,24.8454 43.56186,18.961319 q -0.973306,-1.08391 -2.18994,-1.636925 -1.216633,-0.553015 -2.654472,-0.553015 -2.91992,0 -4.932896,2.18994 -1.990854,2.16782 -1.990854,5.375307 0,3.185368 2.012975,5.375308 2.012975,2.18994 4.910775,2.18994 2.765075,0 4.623206,-1.81389 1.880252,-1.83601 2.344785,-5.021378 z"
             style="font-family:'Bauhaus Md BT';-inkscape-font-specification:'Bauhaus Md BT'"
             id="path444" />
          <path
             d="m 66.987584,17.280153 h -1.681166 q -4.092312,0 -6.525578,1.968734 -2.433267,1.946613 -2.433267,5.198343 0,3.229608 2.433267,5.198342 2.455387,1.946613 6.525578,1.946613 h 1.681166 v 3.672021 h -1.946613 q -5.817719,0 -9.290654,-2.964161 -3.450815,-2.986282 -3.450815,-7.919177 0,-2.654473 1.238754,-4.955016 1.238754,-2.300543 3.517176,-3.871106 1.592684,-1.061789 3.384453,-1.526322 1.791769,-0.464533 4.601086,-0.464533 h 1.946613 z"
             style="font-family:'Bauhaus Md BT';-inkscape-font-specification:'Bauhaus Md BT'"
             id="path446" />
          <path
             d="m 70.748086,7.8125337 h 3.893227 v 5.7513573 h 6.56982 v 3.672021 h -6.56982 v 9.290655 q 0,2.610231 1.260874,3.826864 1.282996,1.194513 4.070192,1.194513 h 1.238754 v 3.716262 h -1.282995 q -4.601086,0 -6.901629,-2.012975 -2.278423,-2.012975 -2.278423,-6.061046 z"
             style="font-family:'Bauhaus Md BT';-inkscape-font-specification:'Bauhaus Md BT'"
             id="path448" />
          <path
             d="m 88.00216,24.336626 q 0,3.163247 2.012975,5.375308 2.035096,2.18994 4.910774,2.18994 2.875679,0 4.888654,-2.18994 2.035097,-2.212061 2.035097,-5.375308 0,-3.141126 -2.012976,-5.331066 -2.012975,-2.18994 -4.910775,-2.18994 -2.875678,0 -4.910774,2.18994 -2.012975,2.18994 -2.012975,5.331066 z m -4.048071,0.04424 q 0,-2.256302 0.840583,-4.291398 0.840583,-2.035096 2.433266,-3.672021 1.570564,-1.592683 3.517177,-2.411146 1.968734,-0.840583 4.180794,-0.840583 2.212061,0 4.202916,0.840583 1.990855,0.818463 3.539295,2.411146 1.57056,1.592684 2.38903,3.649901 0.84058,2.057216 0.84058,4.313518 0,2.300543 -0.84058,4.37988 -0.81847,2.057216 -2.38903,3.6499 -1.54844,1.592683 -3.539295,2.433266 -1.990855,0.818463 -4.202916,0.818463 -2.21206,0 -4.180794,-0.818463 -1.946613,-0.840583 -3.517177,-2.433266 -1.592683,-1.614805 -2.433266,-3.672021 -0.840583,-2.057216 -0.840583,-4.357759 z"
             style="font-family:'Bauhaus Md BT';-inkscape-font-specification:'Bauhaus Md BT'"
             id="path450" />
          <path
             d="M 109.87944,35.264206 V 13.563891 h 3.58354 v 3.207488 q 0.99543,-1.902372 2.74295,-2.742955 1.74753,-0.862704 4.71169,-0.862704 h 1.01755 v 3.760503 h -0.59726 q -4.00382,0 -5.79559,1.902373 -1.76965,1.902372 -1.76965,6.193769 v 10.241841 z"
             style="font-family:'Bauhaus Md BT';-inkscape-font-specification:'Bauhaus Md BT'"
             id="path452" />
          <path
             d="m 130.4516,31.41522 q 0.17697,0 0.5309,0.02212 0.35393,0.02212 0.50877,0.02212 5.9062,0 9.46762,-3.318091 3.58354,-3.340212 3.58354,-8.781881 0,-5.552272 -3.6499,-8.826122 -3.6499,-3.2738495 -9.88791,-3.2738495 -0.33181,0 -0.7521,0.022121 -0.4203,0.022121 -1.23876,0.066362 l -0.0221,27.916205 h -4.15867 V 3.5874979 h 5.44167 q 3.6499,0 6.26013,0.5530152 2.63235,0.5530151 4.5126,1.681166 3.82687,2.3005431 5.81772,5.7734779 1.99086,3.472936 1.99086,7.808574 0,4.335639 -2.10146,7.897057 -2.07934,3.561417 -5.92832,5.83984 -1.76965,1.039668 -4.31352,1.592683 -2.54387,0.530895 -5.70712,0.530895 h -0.35393 z"
             style="font-family:'Bauhaus Md BT';-inkscape-font-specification:'Bauhaus Md BT'"
             id="path454" />
          <path
             d="m 173.54255,25.663863 q -0.81847,4.645327 -3.76051,7.344041 -2.94204,2.698714 -7.16707,2.698714 -1.43784,0 -2.85356,-0.398171 -1.3936,-0.37605 -2.63235,-1.128151 -2.61024,-1.592683 -4.04808,-4.158674 -1.43783,-2.56599 -1.43783,-5.640754 0,-2.256302 0.81846,-4.291398 0.84058,-2.035096 2.41114,-3.672021 1.57057,-1.614804 3.56142,-2.455387 2.01298,-0.840583 4.22504,-0.840583 3.29597,0 5.88408,1.747528 2.61023,1.725407 4.22503,5.043498 l -14.22355,7.874936 -1.63692,-2.942041 10.55153,-5.884081 q -0.97331,-1.08391 -2.18994,-1.636925 -1.21663,-0.553015 -2.65447,-0.553015 -2.91992,0 -4.9329,2.18994 -1.99085,2.16782 -1.99085,5.375307 0,3.185368 2.01297,5.375308 2.01298,2.18994 4.91078,2.18994 2.76507,0 4.6232,-1.81389 1.88025,-1.83601 2.34479,-5.021378 z"
             style="font-family:'Bauhaus Md BT';-inkscape-font-specification:'Bauhaus Md BT'"
             id="path456" />
          <path
             d="m 178.82938,13.563891 6.21589,17.077108 6.19377,-17.077108 h 4.00383 l -7.25556,19.532496 q -0.50878,1.371477 -1.23876,1.990854 -0.70786,0.619377 -1.74752,0.619377 -1.03967,0 -1.74753,-0.619377 -0.68574,-0.619377 -1.19452,-1.990854 l -7.21131,-19.532496 z"
             style="font-family:'Bauhaus Md BT';-inkscape-font-specification:'Bauhaus Md BT'"
             id="path458" />
        </g>
        <path
           id="rect207-9-3"
           style="fill:#00bc09;stroke-width:162.188;stroke-linecap:square;paint-order:stroke markers fill"
           d="M 4.208499,39.120461 H 195.23918 v 3.87461 H 4.208499 Z" />
      </g>
    </g>
  </g>
</svg>
